<?xml version="1.0" encoding="UTF-8" standalone="no"?>
<svg
   xmlns:dc="http://purl.org/dc/elements/1.1/"
   xmlns:cc="http://creativecommons.org/ns#"
   xmlns:rdf="http://www.w3.org/1999/02/22-rdf-syntax-ns#"
   xmlns:svg="http://www.w3.org/2000/svg"
   xmlns="http://www.w3.org/2000/svg"
   xmlns:sodipodi="http://sodipodi.sourceforge.net/DTD/sodipodi-0.dtd"
   xmlns:inkscape="http://www.inkscape.org/namespaces/inkscape"
   width="512"
   height="350"
   viewBox="0 0 135.46666 92.604575"
   version="1.1"
   id="svg8"
   inkscape:version="1.0 (4035a4fb49, 2020-05-01)"
   sodipodi:docname="stop.svg">
  <defs
     id="defs2">
    <rect
       id="rect23"
       height="9.7244625"
       width="44.128998"
       y="106.64054"
       x="23.786987" />
    <filter
       inkscape:label="Black Light"
       inkscape:menu="Color"
       inkscape:menu-tooltip="Light areas turn to black"
       style="color-interpolation-filters:sRGB"
       id="filter93">
      <feColorMatrix
         type="luminanceToAlpha"
         result="result2"
         id="feColorMatrix85" />
      <feComposite
         k4="0"
         k2="0"
         k1="0"
         in2="SourceGraphic"
         operator="arithmetic"
         in="result2"
         k3="2"
         result="result4"
         id="feComposite87" />
      <feBlend
         in="result4"
         mode="multiply"
         result="result3"
         in2="result2"
         id="feBlend89" />
      <feComposite
         in2="SourceGraphic"
         operator="in"
         in="result3"
         id="feComposite91" />
    </filter>
  </defs>
  <sodipodi:namedview
     id="base"
     pagecolor="#ffffff"
     bordercolor="#666666"
     borderopacity="1.0"
     inkscape:pageopacity="0.0"
     inkscape:pageshadow="2"
     inkscape:zoom="1.4142136"
     inkscape:cx="249.48983"
     inkscape:cy="145.8794"
     inkscape:document-units="mm"
     inkscape:current-layer="layer3"
     inkscape:document-rotation="0"
     showgrid="false"
     units="px"
     inkscape:window-width="1920"
     inkscape:window-height="1017"
     inkscape:window-x="-8"
     inkscape:window-y="-8"
     inkscape:window-maximized="1" />
  <metadata
     id="metadata5">
    <rdf:RDF>
      <cc:Work
         rdf:about="">
        <dc:format>image/svg+xml</dc:format>
        <dc:type
           rdf:resource="http://purl.org/dc/dcmitype/StillImage" />
        <dc:title />
      </cc:Work>
    </rdf:RDF>
  </metadata>
  <g
     inkscape:groupmode="layer"
     id="layer3"
     inkscape:label="Items">
    <g
       style="fill:#aa0000"
       id="g213"
       transform="rotate(-40.114494,67.733331,46.302288)">
      <path
         id="path207"
         d="m 64.627689,6.5302274 c -7.691471,1.012862 -14.580458,3.210157 -20.902175,7.8665006 -3.900955,2.873282 -7.069407,6.494835 -9.698371,10.542131 -10.340254,15.918726 -7.307073,38.33406 6.787941,51.019563 8.781242,7.903404 20.604253,11.476617 32.279309,10.024049 5.68645,-0.707499 11.331625,-2.713579 16.139654,-5.836734 C 110.83473,66.114821 114.21029,34.322348 94.790322,16.781666 90.491088,12.898413 85.458956,10.082465 79.97359,8.2702364 75.241232,6.7068014 69.598703,5.8756144 64.627689,6.5302274 m 0,10.0174666 c 3.737521,-0.446989 7.772434,-0.05075 11.377133,0.982799 3.737256,1.071541 7.249351,2.800125 10.318796,5.203901 16.216122,12.699208 14.580982,38.164937 -2.645845,49.116619 -3.825363,2.43206 -8.220641,3.806048 -12.700056,4.341831 -3.810281,0.455615 -7.987012,0.06721 -11.641718,-1.073155 C 54.478492,73.603885 50.037997,71.114938 46.416285,67.491983 32.946341,54.017224 36.098257,30.952812 51.927633,20.889447 c 3.811075,-2.422774 8.237045,-3.80798 12.700056,-4.341753 z"
         style="fill:#aa0000;stroke:none;stroke-width:0.264585" />
      <rect
         y="39.473522"
         x="33.776588"
         height="13.657533"
         width="67.913483"
         id="rect209"
         style="fill:#aa0000;stroke-width:0.265;stroke-dasharray:0.265, 3.18000999999999978" />
    </g>
    <g
       inkscape:groupmode="layer"
       id="layer1"
       inkscape:label="Layer 1" />
  </g>
</svg>
