<?xml version="1.0" encoding="UTF-8" standalone="no"?>
<svg
   xmlns:dc="http://purl.org/dc/elements/1.1/"
   xmlns:cc="http://creativecommons.org/ns#"
   xmlns:rdf="http://www.w3.org/1999/02/22-rdf-syntax-ns#"
   xmlns:svg="http://www.w3.org/2000/svg"
   xmlns="http://www.w3.org/2000/svg"
   xmlns:sodipodi="http://sodipodi.sourceforge.net/DTD/sodipodi-0.dtd"
   xmlns:inkscape="http://www.inkscape.org/namespaces/inkscape"
   sodipodi:docname="studying.svg"
   inkscape:version="1.0 (4035a4fb49, 2020-05-01)"
   id="svg8"
   version="1.1"
   viewBox="0 0 132.29166 132.29167"
   height="500"
   width="500">
  <defs
     id="defs2" />
  <sodipodi:namedview
     inkscape:window-maximized="0"
     inkscape:window-y="4"
     inkscape:window-x="352"
     inkscape:window-height="1040"
     inkscape:window-width="1274"
     units="px"
     showgrid="false"
     inkscape:document-rotation="0"
     inkscape:current-layer="layer1"
     inkscape:document-units="px"
     inkscape:cy="313.38343"
     inkscape:cx="239.5654"
     inkscape:zoom="0.98994949"
     inkscape:pageshadow="2"
     inkscape:pageopacity="0.0"
     borderopacity="1.0"
     bordercolor="#666666"
     pagecolor="#ffffff"
     id="base" />
  <metadata
     id="metadata5">
    <rdf:RDF>
      <cc:Work
         rdf:about="">
        <dc:format>image/svg+xml</dc:format>
        <dc:type
           rdf:resource="http://purl.org/dc/dcmitype/StillImage" />
        <dc:title />
      </cc:Work>
    </rdf:RDF>
  </metadata>
  <g
     id="layer1"
     inkscape:groupmode="layer"
     inkscape:label="Layer 1">
    <path
       style="fill:#62b5e5;stroke:none;stroke-width:0.531437;fill-opacity:1"
       d="m 22.667786,35.376012 -4.725173,9.816066 -6.311435,3.132414 v 1.125954 l 4.013313,0.562978 v 0.562989 l -3.511647,2.251898 5.016639,-3.377865 -5.016639,-0.562965 13.97189,-2.430892 3.603403,-4.700588 8.009567,-0.18725 C 35.90128,35.716784 26.956812,34.933049 22.166122,34.250057 V 33.68708 h 1.504992 V 33.12409 C 21.988534,32.588071 20.197743,32.161113 18.656782,31.200179 8.4791434,24.853325 23.365399,16.64878 28.687753,15.747382 c 5.045536,-0.854535 10.603271,-0.651119 15.551583,0.907426 2.313775,0.728765 4.645307,2.829121 6.978396,3.156785 1.637883,0.230041 2.767183,-1.581518 4.065588,-2.403079 1.883398,-1.191656 4.384194,-1.521733 6.514249,-1.686345 6.595383,-0.509704 12.218532,2.706024 18.561567,3.327487 l -1.003328,-1.688932 c 2.217355,0.482583 5.225341,1.775069 7.420118,0.708057 3.223197,-1.567111 5.158611,-6.009684 8.678288,-7.68359 4.0389,-1.9211643 7.879126,-1.2959513 11.994786,-0.343173 -5.27099,-4.4018393 -10.688956,1.016077 -16.053253,-0.0609 -13.000625,-2.609874 -22.90698,-4.768307 -36.119806,-1.259746 -4.841305,1.2855793 -9.306466,5.2869103 -14.046588,6.2227553 -7.536448,1.48788 -14.18194,-1.665798 -21.57155,2.926076 -9.418582,5.852586 -3.184664,13.173446 3.009983,17.505734 M 91.395747,11.167873 v 1.125968 C 86.385629,15.104569 77.544302,11.236558 71.830853,10.702643 64.323447,10.001122 54.224161,13.230515 47.750984,17.360637 H 47.24932 L 46.747656,15.10874 43.236008,15.671705 V 15.10874 c 6.150048,-3.942971 13.42694,-7.2003003 20.568227,-6.1927643 v -0.562977 h -1.504991 c 8.469582,-4.025703 20.837114,-0.200012 29.096503,2.8148743 M 59.790914,8.9159757 v 0.562965 h 2.006655 l -2.006655,-0.562965 m -2.508318,0.562965 v 0.5630033 l 3.009982,0.562964 -3.009982,-1.1259673 m 5.016648,0 0.501663,0.5630033 -0.501663,-0.5630033 M 53.77095,10.604908 v 0.562965 l 4.01331,1.125968 v -0.562965 l -2.508319,-0.563003 v -0.562965 l 4.514973,1.125968 -6.019964,-1.125968 m 22.073213,10.133593 1.003327,1.688945 c -4.99707,-2.981529 -9.690139,-5.675374 -15.551574,-4.969074 -2.461673,0.296633 -5.052516,0.823405 -5.518311,3.843107 4.793407,0.424495 11.076241,0.07835 15.049921,3.377864 -7.624288,3.118278 -16.238459,5.69e-4 -24.07987,0 -2.913214,-2.11e-4 -6.923915,-1.013194 -8.528287,2.251922 l 3.511647,2.251909 c -2.361483,-0.02191 -4.665424,-0.52931 -7.023296,-0.560786 -1.504489,-0.01919 -3.010384,-0.0037 -4.514975,-0.0025 -2.54153,0.0037 -9.465244,2.099267 -4.00363,4.797011 4.434208,2.19033 9.549024,1.914071 14.03691,4.141101 1.265848,0.628171 3.770206,1.84988 3.770206,3.749321 0,5.163566 -12.031609,0.422453 -14.228497,1.024717 -2.518452,0.690443 1.794203,5.311307 -1.591728,7.632816 -4.500077,3.085329 -11.012729,2.261478 -16.043162,3.426039 v 0.563013 c 5.045132,-0.731191 11.375428,-0.424606 16.052843,-2.797941 3.596682,-1.825001 3.954869,-5.208918 0.502066,-7.335664 V 43.25725 c 4.5371,-0.80703 10.730592,3.289771 14.975623,0.462222 2.540677,-1.692324 0.966054,-4.589758 -0.938715,-5.887404 -3.71462,-2.530644 -8.750021,-3.54265 -13.03358,-3.582456 2.92144,-7.024945 7.816325,-3.332995 13.043264,-5.066797 l -3.51165,-2.251909 c 5.677131,-4.58274 16.92103,-0.56299 23.578212,-0.56299 3.027034,0 7.206903,0.964103 8.528283,-2.814874 -4.320829,-2.433591 -10.265052,-2.584352 -15.049921,-2.8149 6.205582,-7.536628 14.58889,1.305383 21.069885,2.434766 3.147445,0.548508 8.039667,1.461838 10.931267,-0.440016 2.813322,-1.850165 5.34873,-7.1067 7.630313,-9.876433 h 0.50165 l 2.50833,2.251922 v 1.125942 c -4.45829,2.845918 -4.17837,7.133151 0,9.570628 l -3.51165,1.125955 v 1.125942 c 1.98559,1.482112 2.39996,3.011545 2.50831,5.629799 -7.314761,0 -12.388587,3.975115 -19.564893,1.688932 0.712871,-3.433218 -2.189759,-3.126683 -4.013309,-5.066809 3.439412,-0.831302 -2.814834,-5.305996 -5.351245,-2.533404 -1.473887,1.611695 1.306335,2.988398 0.334608,4.222348 v 0.562965 h 8.026619 v 1.125968 L 66.814217,32.560679 v -0.562965 h 2.006654 v -0.563002 c -2.685411,0.0989 -3.426364,0.92645 -3.009982,3.940867 -4.942903,-0.01919 -8.696849,-6.170806 -13.544527,-4.736224 -3.814754,1.128938 -4.806394,7.699062 -0.480394,8.925945 1.852549,0.525435 3.498709,-0.942009 4.994964,-1.937824 l 1.504991,3.940841 c -5.396395,1.705828 -14.355963,1.506373 -19.013312,4.632858 -3.876859,2.602546 -2.04764,7.530117 1.455076,8.878612 v 0.56299 c -2.867109,0.6062 -6.30461,0.473894 -9.027995,1.521659 -3.41287,1.313081 -5.660122,6.790138 -2.794417,10.058794 2.314277,2.639791 9.623621,4.928301 12.825741,6.43481 v 0.563002 l -18.561566,1.125943 2.006655,6.192751 1.504992,0.562977 v 0.56299 h -1.504992 v 0.562965 l 2.006655,0.562977 v 0.56299 h -1.504989 v 0.562977 h 1.003326 v 0.562965 h -1.504992 v 0.56299 l 7.52496,3.940839 v 0.56297 l -7.023294,-3.377867 -0.501666,1.688937 2.50832,1.12596 v 0.56297 c -1.44715,-0.57874 -4.042559,-0.43631 -5.165683,-1.51552 -3.464944,-3.329457 -2.359276,-15.263468 -2.359276,-19.877622 h 0.501663 l 3.009985,18.015275 h 0.501664 C 22.865541,76.284352 19.809052,65.064203 22.166122,53.953844 h -0.501664 l -1.003329,12.948468 h -0.501663 v -5.066797 h -0.501663 l 0.501663,19.141256 h -0.501663 l -0.501666,-4.503832 h -0.501662 c 0.312635,4.295514 1.425277,12.372567 4.223508,15.528057 3.893465,4.3901 11.95365,6.9556 16.846378,9.978214 3.257354,2.01208 7.435011,6.67073 11.036606,7.36994 3.008583,0.58438 6.039532,-1.36408 9.029947,-1.34945 v 0.56298 l -4.013309,1.12596 v 0.56298 c 10.320729,-2.2463 20.598321,-3.37787 31.103169,-3.37787 l -3.814157,10.3571 -5.717463,0.90246 -16.554901,-0.56299 v 0.56299 l 6.521627,0.56297 v 0.56297 C 50.711604,118.87514 40.685699,106.05839 28.186089,96.177566 l 2.50832,4.503814 -5.016638,-3.377874 13.043262,15.200404 C 29.350451,105.92608 21.408508,94.687916 18.717935,82.666099 17.926359,79.128908 16.119166,74.284478 17.651145,70.843562 15.338776,65.981122 16.776796,58.691058 17.149483,53.391238 h -0.501664 c -6.9736306,32.855956 13.516382,61.159102 40.634777,70.442602 6.325487,2.16521 14.062642,1.62814 20.568221,1.26671 3.577868,-0.19872 6.972632,0.89908 10.534441,-0.30907 2.416518,-0.81969 2.836904,-2.82896 4.665484,-4.36365 2.580052,-2.16521 6.128322,-3.07273 8.879948,-5.10902 1.4508,3.88962 3.44342,7.50957 7.02331,9.27112 5.76109,2.83403 14.35209,0.13001 14.8959,-8.14515 0.40985,-6.23724 -6.40025,-6.06046 -8.37428,-10.6966 1.28877,0.38227 2.65981,1.04601 4.0133,0.94693 10.47776,-0.76509 3.72485,-17.865534 3.90345,-23.466046 0.12742,-3.990934 5.07834,-13.822782 -0.003,-16.471597 -5.07686,-2.645435 -9.24467,3.104254 -10.16022,8.026936 -0.93308,5.013325 2.64278,5.28186 3.42136,9.080283 0.54028,2.636412 -3.27237,9.9039 -5.29206,11.16327 -2.53942,1.58311 -8.58396,-0.13958 -11.432906,-0.44362 -7.341367,-0.78424 -14.740407,0.46727 -22.073224,0.46727 v -0.56297 c 10.674396,-2.32285 22.37069,-1.52286 33.10982,0 v -1.68893 l -4.01332,-0.563 v -0.56297 h 3.51166 l 0.50166,-2.25191 -0.50166,-1.688931 h -2.00667 v -0.562989 h 2.50833 v -0.562965 h -2.50833 v -0.562978 h 3.00998 l 2.00667,-5.066796 -11.03661,-4.503832 V 75.91037 l 9.02994,-2.251934 v -0.562965 c -8.15554,0.189157 -16.440516,3.860337 -24.079861,6.755729 l 6.521639,-3.44317 15.551582,-4.438526 c -0.79863,-6.998357 -1.26666,-8.744722 2.00669,-15.200389 l -9.53161,-1.125942 v -0.56299 l 2.00664,-1.125942 -3.00998,-2.8149 c 7.46125,1.914071 19.82576,2.101768 18.46876,-10.133605 -0.37173,-3.352514 -6.66911,-12.789673 -2.28357,-15.244689 1.76434,-0.987745 4.72616,4.682282 6.38969,5.674061 -1.03193,-2.618724 -2.45213,-7.781349 -4.23053,-9.726104 -2.96333,-3.241276 -6.75993,-0.696237 -7.8094,2.970376 l -7.52497,-5.629774 v 0.562978 c 6.46444,4.79878 11.50918,11.360389 13.99392,19.70422 1.35298,4.543923 -0.0132,10.607017 -4.96396,10.69657 1.18893,-1.067235 1.18893,-0.621697 0,-1.688932 8.40338,-4.652501 -2.63023,-19.667558 -7.52497,-22.519095 l -4.0133,-5.629774 2.50831,3.377865 -4.514966,-3.940854 c 3.956126,-1.710259 8.551366,-2.646785 10.534936,-7.318706 h -0.50166 c -3.02604,4.092506 -13.363826,5.670261 -12.039936,11.822537 -3.52168,-4.001035 2.48023,-8.083688 5.517806,-9.3773 0.99831,-0.42499 3.37368,-1.146328 2.83691,-2.882221 -0.68677,-2.2206693 -4.30027,-1.8966443 -5.846386,-1.523009 -3.19912,0.773115 -6.240699,3.053406 -8.262917,5.909103 -1.632924,2.305356 -2.538418,5.515787 -5.289544,6.425168 -4.258125,1.407549 -6.879817,-2.333727 -10.527415,-1.929618 m -14.715313,-9.945946 0.334111,0.187672 -0.334111,-0.187672 m 22.741932,-0.187671 v 0.56299 l 4.01332,2.251909 v -0.56299 l -4.01332,-2.251909 m 3.344601,0.187671 0.334111,0.187672 -0.334111,-0.187672 m 18.226942,0.938296 v 1.125967 c -3.55479,1.776591 -5.599056,2.319628 -9.029936,0 2.64326,-2.207696 5.996886,-2.268805 9.029936,-1.125967 m 3.00998,-1.125942 1.00334,1.125942 -1.00334,-1.125942 m -56.186348,0.562965 v 0.563002 l 2.006657,0.562965 v 0.562977 l -3.009985,-0.562977 v 0.562977 h 1.504991 v 0.56299 l -3.511647,1.125942 v 0.56299 l 6.521632,-2.251922 v -0.562977 l -3.511648,-1.125967 m 35.618145,3.377876 c -0.899483,4.840148 -4.328361,2.454422 -7.524966,2.556873 -7.029313,0.225213 -13.839908,-3.053146 -21.069885,-1.746291 -3.981048,0.719593 -6.889299,5.486539 -10.534941,2.004305 11.895454,-7.03424 26.513441,-6.802987 39.129792,-2.814887 m 0.501664,-3.377876 0.501652,0.563002 -0.501652,-0.563002 m 1.337924,0.750624 0.334123,0.187671 -0.334123,-0.187671 m -42.976037,2.627252 v 0.56299 l 4.013312,-1.688932 -4.013312,1.125942 m -1.003327,-0.562977 -1.003328,0.562977 v 0.56299 l 1.003328,-1.125967 m 1.504993,1.688932 0.501662,0.562977 -0.501662,-0.562977 m 45.65142,1.125967 v 0.562965 l 3.00998,0.562977 v -0.562977 l -3.00998,-0.562965 m -70.232955,5.066796 1.504993,2.25191 -5.016642,2.814887 v 0.562977 c 8.255031,-0.808836 16.71424,-7.53315 25.083199,-6.192763 -5.520161,-5.460038 -15.512503,-1.292968 -21.57155,0.562989 m 10.534942,-1.125967 2.50832,-1.125954 -0.501663,1.125954 h 0.501663 2.006655 l -0.501662,-1.125954 h 3.511646 v 0.562989 l -19.564893,6.192739 v -0.562965 l 4.013311,-1.688932 v -0.562977 l -1.504992,-1.125955 c 1.602567,-0.821103 9.14413,-4.282517 9.531615,-1.688945 m 66.219643,-0.562965 c 3.821166,4.906851 10.433616,8.568909 12.216016,15.200402 0.71087,2.644965 0.98176,6.889891 -1.68108,7.881671 -0.46303,-2.176517 -0.32859,-4.946089 -2.0809,-6.416034 -4.81798,-4.041609 -11.115866,2.436809 -9.959026,8.104966 L 86.380646,44.383613 C 89.19248,38.351475 94.00392,39.8361 97.759884,36.17049 100.93943,33.067363 100.27773,25.743025 97.417244,22.990448 l 1.00334,-2.814875 h 1.00332 m 4.013316,0 6.01996,6.755729 -6.01996,-6.755729 m -72.239615,2.25191 2.006656,-1.125967 -2.006656,1.125967 m 3.511648,-1.688945 -0.501664,1.125967 0.501664,-1.125967 m 1.504991,0 -0.501663,1.125967 0.501663,-1.125967 m 83.276206,3.377877 -5.01663,1.125955 v -3.377865 c 2.43307,-1.069103 3.68672,-0.155538 5.01663,2.25191 m -41.638097,-2.814899 -0.501664,0.562989 0.501664,-0.562989 m 26.588197,2.251922 1.00331,1.688932 -1.00331,-1.688932 m -5.016646,3.377864 -0.50167,3.377864 h -0.50165 l -2.00666,-2.814887 3.00998,-0.562977 m -25.083197,1.688932 -3.511646,-0.56299 3.511646,0.56299 M 29.19095,29.183211 v 1.125955 l 2.006655,-1.125955 -2.50832,4.503832 -0.501663,-1.688932 h -0.501664 l -1.003328,1.12593 0.501664,-2.251898 -2.50832,1.125968 0.501664,-2.251935 0.501666,1.688932 h 0.501662 l 0.501664,-1.688932 1.003328,1.125967 1.504992,-1.688932 m -0.501665,1.125955 -0.501663,1.688945 0.501663,-1.688945 m 27.591519,5.066809 -6.019967,-2.251934 c 2.562098,-1.952901 4.501983,-0.322391 6.019967,2.251934 m 10.534937,-2.251934 -0.501664,0.563002 0.501664,-0.563002 m -14.897809,0.9353 c 1.785519,-0.803713 2.674468,1.993784 0.804017,2.582878 -1.542466,0.485839 -2.288941,-1.914517 -0.804017,-2.582878 m 25.432757,0.190642 V 34.81296 L 67.317416,34.249983 H 77.350689 M 36.71591,41.568689 C 32.703551,41.555939 26.186935,38.771713 27.184294,46.07252 L 19.15767,45.509555 c 0.82283,-2.712659 1.948113,-7.948919 4.209162,-9.554586 3.211202,-2.280292 12.35814,1.866045 13.349078,5.61372 M 90.89563,35.37595 v 0.562965 l -6.019986,3.377877 6.019986,-3.940842 m -30.601517,0.562965 -0.501663,0.562977 0.501663,-0.562977 m 1.839599,0.375343 -0.167552,0.375281 0.167552,-0.375281 M 73.33738,35.938915 v 0.562977 h -4.014071 l 4.01331,-0.562977 m -23.07654,0.562977 4.514973,0.56299 v 0.562978 c -1.724668,0.90865 -3.897627,1.423491 -4.514973,-1.125968 m 15.551585,0 v 0.56299 l -2.508319,1.125943 2.508319,-1.688933 m 25.083205,0 -0.501675,0.56299 0.501675,-0.56299 m 18.059901,2.8149 -0.50168,0.562965 -8.02662,-1.125943 c -0.616046,2.186815 -1.441766,4.19919 0.50166,5.629774 v 0.562965 l -2.508306,-0.562965 c 0.95918,-5.20055 6.799036,-12.248641 10.534946,-5.066796 m -82.272899,-2.25191 -1.504992,3.940842 h -0.501663 l 0.501663,-2.814899 h -0.501663 l -1.003328,6.755728 h 0.501665 l 3.511646,-7.881671 h -1.003328 m 33.109818,0 c 10.072914,7.698158 15.483862,6.377291 26.588196,2.814875 v 0.562989 c -6.486013,3.813599 -13.5369,5.443081 -20.568221,2.198921 -2.106992,-0.972075 -5.395904,-3.014961 -6.019975,-5.576785 m 7.524966,0 -0.501664,2.25191 1.003327,-0.562978 v 0.562978 h -2.006954 l 1.504991,-2.25191 m 10.033273,0 1.504991,1.688932 v 0.562978 l -1.504991,0.562965 v -2.814875 m 4.514973,1.688932 -3.009982,-1.688932 3.009982,1.688932 M 69.824673,37.62786 v 3.377864 l -1.504991,-0.562978 1.504991,-2.814886 m 2.508318,0 -1.003327,2.814886 V 37.62786 h 1.003327 m 2.006655,0 1.003327,2.814886 -1.003327,-2.814886 M 22.3338,39.129133 22.501052,39.504438 22.3338,39.129133 m 65.048638,-0.187672 c 0.387793,0 0.08019,0.280319 -0.167067,0.187672 l 0.167067,-0.187672 m -64.212988,0.375343 -0.501664,2.814899 h 0.501664 v -2.814899 m 91.30283,2.814899 h 0.50168 c -0.15395,7.14267 -6.26329,7.874764 -11.03662,5.066797 l -0.50166,1.688932 v 0.562977 l 4.51498,0.56299 v 0.562965 l -6.52163,-0.562965 2.50831,-5.066796 h -2.00665 c -0.14353,-2.010123 0.65869,-7.592787 3.7108,-5.042487 1.27322,1.064029 0.58496,3.535941 1.31988,4.979038 2.16619,4.254469 6.33502,0.05236 7.51091,-2.751451 m -47.658063,-1.688932 -0.501664,0.562965 0.501664,-0.562965 m 1.003327,0.562965 -0.501664,0.563002 0.501664,-0.563002 m 11.036601,0 v 0.563002 l -4.514973,0.562965 4.514973,-1.125967 m -17.056576,3.377877 c -1.489935,7.621923 12.009343,8.834919 16.545382,6.815686 2.134081,-0.950141 2.61116,-3.622411 5.035707,-3.939542 2.414004,-0.315781 5.196245,-0.267582 7.515437,0.50172 v 0.56299 l -4.514984,1.125942 v 0.56299 l 7.524966,-2.251922 V 47.1985 l -9.531621,-0.56299 c 2.04077,-3.240706 10.975408,-1.020954 14.046598,0 -6.267805,5.317842 -21.566038,4.187382 -19.564909,16.326356 -3.549268,-0.458261 -3.009982,-3.446709 -3.009982,-6.755728 h -1.003328 v 6.192763 c -3.77552,-0.821623 -7.421617,-1.088128 -9.531609,-5.066796 l -1.504991,1.688932 0.501663,-2.251922 -1.504991,-0.562977 h -0.501663 v 2.251909 h -0.501675 l -1.003316,-2.251909 -0.501675,1.688932 h -0.501664 l 0.501664,-2.251897 c -1.650473,0.0087 -3.690437,1.686778 -5.016637,1.43874 -1.668076,-0.312018 -1.247436,-1.693883 0,-2.00173 v -0.562977 l -3.009982,1.688932 -4.514975,-2.251897 1.504992,1.125942 c -4.050988,0.40547 -7.546882,-1.173077 -6.521631,-6.192751 h -0.501666 l -1.504992,5.066809 c -1.635422,-1.346316 -4.077975,-4.973753 -0.888746,-6.393927 2.101469,-0.935721 5.779971,0.736154 7.912043,1.214629 6.690837,1.50152 13.368843,3.055671 20.06656,4.505502 2.475715,0.536019 6.430831,0.570936 8.026619,2.925693 l 3.009982,-0.562965 v -0.56299 L 43.236008,47.1985 C 46.904527,43.828 57.92523,41.436705 61.797569,44.383613 m 52.173061,-2.25191 -1.00334,2.25191 h -0.50166 l 1.505,-2.25191 m -64.212991,3.940842 c 1.643351,2.877382 7.15373,3.120692 10.033275,3.377864 v -0.562977 l -8.528283,-2.814887 8.02662,-1.688932 -9.531612,1.688932 m 59.196361,-2.25191 2.5083,0.562978 v 0.562965 l -3.00998,-0.562965 0.50168,-0.562978 m -0.50168,1.125943 2.00667,0.56299 v 0.562977 l -2.50833,-0.562977 0.50166,-0.56299 M 67.817544,47.1985 67.31588,47.761477 67.817544,47.1985 m 2.006655,0.750624 c 0.387782,0 0.0803,0.280294 -0.167067,0.187671 l 0.167067,-0.187671 m 8.528282,-0.187672 v 0.562965 l -7.524955,0.562978 7.524955,-1.125943 m 21.571563,0.562965 v 0.562978 l -1.50499,0.562989 1.50499,-1.125967 m -39.296847,1.313602 0.3341,0.187671 -0.3341,-0.187671 m 10.701993,0.375343 v 0.562965 l -4.514973,-0.562965 h 4.514973 m 7.524955,-0.562978 v 0.562978 l -3.511646,0.562965 3.511646,-1.125943 m -0.501664,2.814875 v 0.56299 l 8.02663,-2.251922 -8.02663,1.688932 m -4.013309,-1.688932 -0.501664,0.56299 0.501664,-0.56299 m 25.083192,0 v 0.56299 l -2.00664,0.562977 v 0.562965 l 2.00664,0.56299 v 0.562977 l -4.0133,0.562965 v -0.562965 h 1.00332 v -0.562977 l -2.508307,0.562977 1.003317,1.125955 -6.521629,1.688932 v -0.562965 h 1.003339 v -0.56299 l -2.50833,0.56299 1.003339,1.125942 -2.50833,1.125967 0.501664,-1.125967 h -0.501664 l -3.009982,1.125967 v 0.562965 l 1.003328,0.56299 -3.009993,1.125943 2.006665,-2.251898 V 57.33208 H 80.86081 v -0.56299 l 11.538276,-3.940841 v 0.562977 h -1.003339 v 0.56299 l 3.511647,-1.125967 -1.003317,-1.125955 2.006657,-0.562977 v 0.562977 h -1.00334 l 4.51497,-1.125942 m -55.183028,1.688932 v 1.125942 h 1.003328 v -1.125942 h -1.003328 m 52.507668,0.187671 0.3341,0.187672 -0.3341,-0.187672 m -50.333807,0.750661 0.167251,0.375282 -0.167251,-0.375282 m 54.514153,0.187672 v 0.56299 l -20.06654,7.881658 c 3.248268,-4.85432 14.939544,-6.811874 20.06654,-8.444673 m -83.276205,0.56299 v 1.688932 h 0.501666 l -0.501666,-1.688932 m 71.737959,0.562977 v 0.562965 l 2.006643,-0.562965 h -2.006643 m 3.846253,-0.375343 0.334101,0.187672 -0.334101,-0.187672 m -37.457752,0.938308 0.501664,1.688932 -0.501664,-1.688932 m 26.588196,1.688932 v 0.563003 l 4.514973,-0.563003 v -0.562965 c -0.983264,-0.367854 -1.281253,-0.562977 0,-0.562977 l -4.514973,1.125942 M 20.159466,55.643185 v 2.814875 h 0.501663 l -0.501663,-2.814875 m 25.083198,0.562977 v 0.562965 h -1.504993 v 0.563003 l 36.119801,7.246073 28.594848,-7.246073 v 0.562965 c -9.059036,5.414165 -18.966894,8.538694 -29.096512,8.44466 v 0.562978 l 4.514984,0.562989 -1.003327,10.69657 H 82.365801 L 81.362474,73.658461 H 80.86081 l -0.501674,1.125967 -1.504991,-1.688932 0.501663,3.377864 h -0.501663 l -0.501664,-2.814899 h -0.501664 v 1.688932 H 77.349154 V 73.658461 H 76.84749 l 0.501664,3.377864 H 76.84749 l -0.501664,-3.377864 h -0.501663 v 2.814899 h -0.501664 l -1.504991,-3.940841 h -0.501664 l 0.501664,3.377864 H 73.335844 C 72.215128,71.934636 72.308439,68.071477 75.844163,65.77679 V 65.2138 l -9.53161,-1.125942 v 0.562965 l 2.508318,0.562977 -0.501663,1.688933 c 1.875213,-1.490752 2.905133,-1.539731 5.016636,-0.562978 l -1.504991,5.629774 H 71.32919 l 0.501663,-5.066796 H 71.32919 l -1.003328,5.066796 -2.508318,-0.562965 0.501664,-4.503831 h -0.501664 c -0.383778,2.275563 -0.374249,4.272454 -2.508318,5.066796 l 0.501663,1.688932 h -0.501663 v -1.125942 h -0.501664 v 1.688932 h -0.501664 l -2.006654,-2.251922 0.501663,1.688932 h -0.501663 l -0.501675,-1.688932 h -0.501653 v 1.688932 h -0.501663 l -0.501675,-2.251897 -1.003327,1.125955 h -2.006655 v -1.125955 h -0.501664 l -0.501663,1.125955 -0.501664,-2.251922 H 53.77095 l 1.003328,-0.562965 v -0.562978 l -1.50499,1.125943 -2.006657,0.56299 -1.504992,-1.125955 0.501666,1.688932 h -0.501666 l -2.006655,-2.25191 0.501663,1.125943 -5.016639,-3.940842 c 0.528352,1.625892 0.796443,2.351575 -0.501663,3.377877 -1.791695,-3.882307 -1.574674,-5.20924 -1.003329,-9.570628 -2.219261,2.0744 -2.274694,5.347177 -2.508321,8.444661 h -0.501662 l -1.504993,-1.125943 0.501664,-7.881695 c -2.396549,2.373335 -2.047491,5.165311 -1.504992,8.44466 h -0.501664 v -8.44466 h -0.501663 l -1.003329,6.192763 -1.504991,1.125943 h -0.501663 v -2.251885 h -0.501666 v 2.251909 h -0.501663 v -1.688944 c -2.682949,-0.624334 -2.685908,-4.046449 -0.830705,-5.948637 1.694069,-1.736896 3.809184,-1.230225 5.847344,-0.807092 0.394208,-2.710233 7.019282,-2.512114 9.029952,-2.251897 m -28.093181,1.125955 v 7.318706 h 0.501662 l -0.501662,-7.318706 m 50.668061,0.562977 1.003327,1.688932 -1.003327,-1.688932 m 2.006655,1.688932 h 2.006654 l -1.504991,-1.688932 -0.501663,1.688932 M 14.641162,58.458084 c -0.625273,2.951141 -2.142957,4.799957 -4.514976,6.192764 L 7.6178674,63.524881 13.13617,59.584051 v -0.562977 c -2.705944,0.874798 -5.2404666,2.143641 -6.5216306,5.066809 l 2.508321,1.688932 c 2.9570066,-0.642368 6.7095026,-3.453084 5.5183016,-7.318731 m 22.574878,0 v 0.56299 h 2.508321 l -2.508321,-0.56299 m 6.521631,0 v 0.56299 l 19.063236,2.814875 C 57.742126,59.38701 49.262197,58.509427 43.737671,58.458084 m 37.959411,0.187672 0.334101,0.187671 -0.334101,-0.187671 m -41.471057,0.375343 v 0.562965 h 2.006654 l -2.006654,-0.562965 m 3.009983,0.562965 v 0.563002 H 44.741 L 43.236008,59.584064 M 90.39242,62.96194 v 0.56299 L 100.4257,60.147066 90.39242,62.96194 M 18.654475,60.147041 18.152811,75.347443 h 0.501664 V 60.147041 m 27.925977,0.187672 0.334408,0.187671 -0.334408,-0.187671 m 26.755392,-0.187672 0.501664,0.56299 -0.501664,-0.56299 m -23.076539,0.56299 0.501662,0.562977 -0.501662,-0.562977 m 13.043266,1.125942 0.501664,0.56299 -0.501664,-0.56299 m 43.644759,0.56299 v 0.562977 l -2.50831,0.562965 c 1.04043,0.934001 1.42321,0.806758 0,1.125968 v 0.562965 l 2.50831,-0.562965 v 0.562965 l -8.026616,2.814899 v 0.562965 l 8.026616,-2.251897 v 0.562965 l -4.51498,1.125967 v 0.562965 l 5.01665,-1.125943 v 0.562978 l -3.00998,0.562965 v 0.563002 l 3.00998,-0.563002 v 0.563002 l -11.538266,3.377864 v 0.562965 h 1.50499 v 0.562978 l -3.009995,-0.562978 v -0.562965 h 1.505005 v -0.56299 h -1.505005 v -0.562977 h 1.505005 v -0.562965 h -1.505005 v -0.563002 h 1.505005 v -0.562965 h -1.505005 v -0.562965 l 10.033291,-3.377877 c -1.04046,-0.933988 -1.42324,-0.806745 0,-1.125954 v -0.562978 l -5.016656,1.688932 7.524966,-3.377864 m -43.644759,1.125942 v 0.56299 h 2.006655 l -2.006655,-0.56299 m 25.919466,0.187461 0.334112,0.188093 -0.334112,-0.188093 m 10.702007,0.375517 v 0.562965 l -2.00667,0.56299 2.00667,-1.125955 m -2.50832,1.125955 v 0.562977 l -2.00666,0.562965 2.00666,-1.125942 m -21.571561,0.562977 v 0.562965 h 3.511645 l -3.511645,-0.562965 m 22.574891,0.187449 c 0.38778,0 0.0802,0.280368 -0.16705,0.188104 l 0.16705,-0.188104 m -26.588201,0.375516 0.501664,0.562977 -0.501664,-0.562977 m 23.076541,0 v 0.562977 l -2.006656,0.562965 2.006656,-1.125942 M 38.721033,113.06692 28.186089,99.555456 c 5.045988,2.852054 8.533656,7.934054 13.401702,10.878994 19.202447,11.61593 40.099254,15.03713 58.837909,-0.34511 5.53938,-4.54772 10.08545,-10.668994 13.5389,-17.289624 1.38611,-2.65667 2.67789,-8.343893 5.52432,-9.007638 0.15946,-3.169002 1.63895,-6.470854 1.39011,-9.570045 -0.4264,-5.312817 -4.12017,-2.775489 -5.90507,-5.82e-4 -1.08161,-4.441881 6.42177,-10.311474 8.87042,-5.546447 1.44678,2.816026 0.56235,7.155443 -0.20218,10.050278 -2.11001,7.989791 -5.65928,15.142414 -9.87927,21.956138 -17.431816,28.14945 -50.811026,29.03106 -75.041897,12.3855 M 91.897411,67.653196 c 0.387793,0 0.08019,0.280381 -0.167045,0.188104 l 0.167045,-0.188104 m -48.494197,0.751032 0.167251,0.374935 -0.167251,-0.374935 m 3.678901,-0.188092 0.334409,0.188092 -0.334409,-0.188092 m 40.300323,0 0.167034,0.188092 c -0.247319,0.09234 -0.554838,-0.188092 -0.167034,-0.188092 m -45.149759,0.375504 -0.501663,0.562977 0.501663,-0.562977 m 53.678055,0.562977 v 0.562965 h 1.50499 v 0.56299 h -1.50499 v 0.562977 h 2.00664 v 0.562965 h -2.00664 v 0.56299 l 8.528286,-2.251922 -8.528286,-0.562965 m -55.183047,0 -0.501662,0.562965 0.501662,-0.562965 m 58.193027,0 v 0.562965 h -1.50499 l 1.50499,-0.562965 m 3.511636,0 v 0.562965 l -4.514976,1.125967 4.514976,-1.688932 m -47.658072,0.562965 0.501663,0.56299 -0.501663,-0.56299 m 39.129799,0 v 0.56299 h -1.504991 v 0.562977 h 1.504991 v 0.562965 l -3.009982,-0.562965 3.009982,-1.125967 m 13.544923,0 -0.50167,0.56299 0.50167,-0.56299 m -17.05658,1.125967 v 0.562965 h -1.504991 l 1.504991,-0.562965 m -2.006655,0.562965 v 0.56299 h -1.504991 l 1.504991,-0.56299 m 3.009982,0.187461 0.167045,0.188093 c -0.247319,0.09234 -0.554838,-0.188093 -0.167045,-0.188093 m 14.046583,0 c 0.3878,0 0.0802,0.280357 -0.16704,0.188093 l 0.16704,-0.188093 m 12.72822,0.235883 c 2.32121,-0.847282 2.87304,5.404586 0.68678,5.813868 -2.4707,0.461653 -2.69693,-5.080857 -0.68678,-5.813868 m -28.781446,0.139584 h 4.514973 v 0.56299 h -1.504991 v 0.562977 l 3.009978,0.562965 v 0.56299 l -3.009978,0.562977 v -0.562977 h 1.504991 v -0.56299 L 90.39242,73.095409 v 0.562965 h 1.504991 v 0.56299 H 90.39242 v 0.562977 h 1.504991 v 0.562965 l -3.511646,-0.562965 v 0.562965 h 1.504991 v 0.563003 l -3.511645,-0.563003 v -0.562965 h 2.006654 v -0.562977 h -2.006654 v -0.56299 h 2.006654 v -0.562965 h -2.006654 v -0.562977 l 4.013309,0.562977 v -0.562977 h -1.504991 l 0.501675,-0.56299 m -20.066569,7.881696 v -0.562965 l -4.514973,-2.251934 v -0.562965 l 10.033273,3.940841 -0.501663,-1.125942 h 0.501663 l 9.531621,3.377864 -1.504991,0.562965 v 0.562977 l 22.574865,-2.814874 v -0.56299 h -2.50831 v -0.562977 l 8.52828,1.125967 v 0.562965 c -7.2681,1.514963 -14.744896,2.158457 -22.073196,3.304675 -6.071153,0.949188 -10.165233,0.429 -13.544941,6.828931 l -1.003328,-1.12597 h -0.501663 v 2.25192 h -0.501664 l -1.003327,-2.25192 h -0.501664 c -0.325575,-3.847932 1.457839,-6.362201 5.016637,-5.629772 v -0.562965 c -5.278008,-1.499218 -6.391698,4.555597 -5.518301,9.007637 H 71.32919 c -1.631414,-3.80461 -0.856842,-7.950936 2.508318,-10.133604 v -0.562965 c -3.390242,1.48736 -4.508951,4.587703 -5.016637,8.444659 h -0.501663 c -0.391301,-4.271326 1.61435,-7.067621 4.514973,-9.570626 l -2.508319,-1.125955 1.003328,1.688932 -5.518301,5.629786 -0.501663,-2.251921 h -0.501664 v 2.251921 h -0.501664 v -1.688932 h -0.501663 v 1.125943 h -0.501664 l -2.508318,-4.503807 h -0.501675 l -0.501664,1.688932 -2.508318,-3.377864 -1.003327,0.562965 -0.501664,-1.688932 c -3.05749,0.06424 -4.859668,-3.004056 -5.016638,-6.192764 7.354393,0.06808 12.005318,3.129047 18.561568,6.192764 m 19.06323,-6.192764 v 0.56299 h 2.006655 l -2.006655,-0.56299 m 10.033289,0 -0.50168,0.56299 0.50168,-0.56299 m -3.51166,1.313429 c 0.3878,0 0.0802,0.28038 -0.16705,0.188092 l 0.16705,-0.188092 M 64.807562,90.547706 v 0.56299 h -3.511646 v 0.56298 l 7.023292,1.12595 v 0.56298 h -2.006655 v 0.56297 l 8.528282,2.63531 19.063242,-0.38338 v 0.56297 h -1.504991 l -0.501675,3.940844 h -0.501664 v -3.377884 h -0.501652 v 1.68894 H 90.39242 c -2.158169,-1.7959 -3.72485,-0.27191 -4.514973,2.251934 h -0.501664 l 0.501664,-2.814904 h -0.501664 l -0.501663,2.251914 h -0.501664 v -2.251914 l -3.009982,1.12596 -0.501664,4.503814 h -0.501674 v -3.94084 h -1.504991 l -0.501664,2.8149 h -0.501664 v -2.25192 c -2.288584,-0.0405 -3.388234,-0.49823 -5.016636,1.68893 l -2.508319,-0.56298 -0.501663,2.8149 h -0.501664 l -0.501664,-3.37786 -2.508318,3.94083 h -0.501664 v -2.2519 l -5.016636,1.12594 -2.121044,-8.265644 -8.91557,-1.98787 -15.551583,-10.237192 -9.531614,-7.0952 c 5.951389,-0.0037 13.82661,-2.535088 19.564894,-0.883314 6.817513,1.961416 14.856774,10.367235 20.568226,14.957746 m 5.5183,-15.2004 -0.501663,0.563003 0.501663,-0.563003 m 23.07654,0 -0.501664,0.563003 0.501664,-0.563003 m -9.53161,0.563003 1.003328,2.814874 h -0.501664 l -0.501664,-2.814874 m 3.511646,0 2.006666,0.562965 v 0.562965 l -2.50833,-0.562965 0.501664,-0.562965 m -52.173053,0.562965 v 0.562965 l 10.534943,0.563002 V 77.036239 L 35.209385,76.473274 m 51.671389,0.75045 c 0.387783,0 0.0803,0.280357 -0.167066,0.188093 l 0.167066,-0.188093 m -53.17638,0.375517 -0.501666,3.377864 19.063231,11.587201 9.029957,-0.32767 v -0.56296 c -2.606648,0.009 -5.47095,0.95254 -8.026628,0.34285 C 49.121579,91.026806 44.80732,87.26613 41.229353,84.811523 38.345938,82.833236 34.99392,81.821552 34.70772,77.599241 h -1.003326 m 82.105836,0.375491 -0.16761,0.37496 0.16761,-0.37496 m -0.83627,0.187449 1.50499,3.377877 -1.50499,-3.377877 m 2.50831,1.125967 0.50166,1.125967 -0.50166,-1.125967 m -51.504325,0.938481 0.167552,0.374935 -0.167552,-0.374935 m 3.679198,-0.188092 0.334111,0.188092 -0.334111,-0.188092 m 50.500497,0.188092 0.16761,0.374935 -0.16761,-0.374935 M 74.840835,80.41409 v 0.562965 l 8.02663,3.377877 v -0.562977 l -8.02663,-3.377865 m -48.159738,0.562965 2.006656,1.125968 v 0.562965 l -2.508319,-1.12593 0.501663,-0.563003 m 0.501663,1.688933 11.036609,5.629798 6.019967,5.0668 v -0.56299 l -2.006657,-1.12595 v -0.56299 l 3.511649,2.8149 -1.504992,-0.56297 v 0.56297 l 4.514977,2.81489 v 0.56298 L 37.21604,89.984716 v 0.56297 l 11.036607,7.3187 v 0.56299 l -11.036607,-6.75573 0.501664,1.12595 H 37.21604 l -1.504992,-2.25191 0.501664,1.12596 -1.504992,-0.56299 0.501665,1.12596 -2.50832,-1.12596 1.003329,-1.12594 -7.023297,-3.940852 V 85.48106 l 2.006656,0.562965 V 85.48106 L 27.18276,84.918083 v -0.56299 l 3.009985,1.125967 v -0.562977 l -3.511648,-1.688932 0.501663,-0.56299 m 2.508321,0 -0.501664,0.56299 0.501664,-0.56299 m 88.794519,1.125967 v 4.503831 h 0.50166 l -0.50166,-4.503831 m 1.00332,0 0.50168,0.562965 -0.50168,-0.562965 m -13.04325,0.562965 v 0.56299 l -7.023306,0.562977 7.023306,-1.125967 m -28.761908,0.750451 0.334111,0.188105 -0.334111,-0.188105 M 108.954,84.918083 108.45232,85.481085 108.954,84.918083 M 30.192745,85.48106 v 0.562965 l 1.504991,0.562977 v 0.56299 l -3.009983,-1.125967 v 0.562977 l 6.019967,3.377864 -1.003326,0.56299 v 0.56298 l 2.006654,-0.56298 v -0.56299 l -4.013312,-2.251909 v -0.562965 l 5.518304,2.814874 v -0.56298 L 30.192745,85.48106 m 77.256255,0 v 0.562965 h -3.00998 L 107.449,85.48106 m -13.043271,0.562965 v 0.562977 l -12.039928,1.125955 12.039928,-1.688932 m 9.531611,0 v 0.562977 h -3.51164 l 3.51164,-0.562977 m -4.514976,0.562977 v 0.56299 h -3.51163 l 3.51163,-0.56299 m -5.016635,0.56299 v 0.562965 h -2.508318 l 2.508318,-0.562965 m 9.029951,0 v 0.562965 h -1.50499 l 1.50499,-0.562965 m 18.56156,0 2.50833,11.822534 -2.50833,2.814884 h -0.50165 l 0.50165,-14.637418 m -13.54492,0.562965 v 0.562978 h -2.00665 l 2.00665,-0.562978 m -13.544926,1.125969 v 0.56296 h -1.504992 l 1.504992,-0.56296 m 14.046606,0 v 0.56296 l -30.601519,3.37788 0.501664,-2.8149 c 8.968246,3.66837 20.734769,-1.03868 30.099855,-1.12594 m 9.02993,0 -0.50166,1.68893 0.50166,-1.68893 m -32.106483,1.12594 v 0.56299 h -4.514973 l 4.514973,-0.56299 m 35.116463,0 c 0.49967,3.02037 1.27223,13.693884 -1.30632,15.629964 -1.24011,0.93117 -3.72134,-0.59 -5.21531,-0.42956 l 5.01664,-1.68893 v -0.56298 c -3.77351,-0.31921 -8.40586,1.98506 -6.00592,7.31646 1.9304,4.28877 5.08738,5.13605 6.5076,10.13585 -3.53021,0.943 -7.95039,1.10345 -10.98996,-1.49132 -1.76385,-1.50597 -2.46368,-4.45202 -4.56162,-5.26441 5.14907,-8.2026 11.96217,-14.020404 15.55158,-23.645074 h 1.00331 m -92.807821,0.56299 11.036606,7.31871 -11.53827,-6.75573 0.501664,-0.56298 m 80.767911,0 v 0.56298 L 97.917374,91.673796 108.954,90.547856 M 52.265959,106.8742 v -3.37786 L 37.21604,93.925716 v -0.56299 l 12.541599,7.881704 -0.501663,-1.12597 2.50832,2.8149 1.504992,-0.56296 -1.003329,2.25189 v 3.37787 L 24.172778,91.673776 c 2.864049,-1.3078 6.024281,1.20817 8.528287,2.69159 6.650308,3.94028 12.750993,8.884364 19.564894,12.508814 m 27.424468,-15.575914 0.334101,0.1881 -0.334101,-0.1881 m -43.477715,0.93849 -0.501664,0.56299 0.501664,-0.56299 m 22.073211,1.68893 v 0.56299 h 7.524966 l -7.524966,-0.56299 m -10.534939,0.56299 4.013312,2.81487 v 0.56299 l -4.514976,-2.8149 0.501664,-0.56296 m 8.026621,9.570604 0.501664,2.25193 h -0.501664 c -0.327781,-1.10345 -0.501664,-1.43786 -0.501664,0 H 54.774278 L 52.767623,95.051636 c 4.514477,0.0598 8.604034,7.959944 3.009982,9.007644 m 53.678045,-7.881674 v 3.37786 H 108.954 l 0.50165,-3.37786 m -13.544916,0.56298 -0.50167,0.56296 0.50167,-0.56296 m 3.00998,0.56296 -0.50166,4.503834 h -0.50168 l 1.00334,-4.503834 m 2.508316,0.56299 -0.50168,4.503814 h -0.50165 l 1.00333,-4.503814 m -52.173054,0.56298 -0.501663,0.56296 0.501663,-0.56296 m 2.50832,0 1.504992,1.12595 v 0.562984 l -2.006657,-1.125974 0.501665,-0.56296 m 55.684704,1.12595 -0.50167,1.688944 -2.00666,0.56297 h -0.50165 l -0.50168,-3.377864 3.51166,1.12595 m -59.698016,-0.56299 -0.501664,0.56299 0.501664,-0.56299 m 49.16307,0 -1.00332,1.125974 1.00332,-1.125974 m -48.159741,0.56299 -0.501666,0.562984 0.501666,-0.562984 m 45.651416,0 -0.501652,0.562984 0.501652,-0.562984 m 1.003335,0 -1.003335,3.377874 h -0.501652 l 1.504987,-3.377874 m -14.381209,0.938484 0.167563,0.37495 -0.167563,-0.37495 m -21.236941,0.18747 -0.501663,0.56297 0.501663,-0.56297 m -29.096505,0.56297 c 3.092508,4.92662 7.883047,9.92699 12.541599,12.9485 l -12.541599,-12.9485 m 19.06323,0 v 0.56297 l 2.006657,0.56299 v -0.56299 l -2.006657,-0.56297 m 7.023293,0 0.501664,0.56297 -0.501664,-0.56297 m 18.561567,0 -0.501664,3.37787 h -0.501663 l 1.003327,-3.37787 m 24.079865,0 -1.00331,1.68894 1.00331,-1.68894 m -8.026617,0.56297 -0.501652,2.25192 H 90.39242 l 1.003327,-2.25192 m 0.836272,0.37551 -0.167607,0.37494 0.167607,-0.37494 m 3.678715,-0.37551 -0.50167,0.56299 0.50167,-0.56299 m 14.046576,0 -3.51164,6.75576 h 0.50166 l 3.51166,-5.06683 -1.00334,0.56299 v -0.56299 l 0.50166,-1.68893 m -40.634775,0.56299 0.501664,0.56298 -0.501664,-0.56298 m 19.06323,0 -0.501652,1.68893 h -0.501675 l 1.003327,-1.68893 m 1.504991,0 -1.003327,1.68893 1.003327,-1.68893 m 29.598164,0 0.50168,0.56298 -0.50168,-0.56298 m 4.01331,0 -2.00664,2.81487 2.00664,-2.81487 m -43.644758,0.56298 v 1.68893 h -0.501664 l 0.501664,-1.68893 m 4.01332,0 -0.501663,0.56296 0.501663,-0.56296 m 1.003328,0 -0.501664,0.56296 0.501664,-0.56296 m -36.621473,0.56296 2.006658,1.12597 v 0.56296 l -2.508321,-1.12594 0.501663,-0.56299 m 20.568224,0 -0.501663,2.8149 h -0.501664 l 1.003327,-2.8149 m 6.856236,0.37552 -0.167552,0.37493 0.167552,-0.37493 m 2.17371,-0.37552 -0.501663,0.56299 0.501663,-0.56299 m 8.02663,0 -0.501664,0.56299 0.501664,-0.56299 m -26.588196,0.56299 -0.501664,2.25191 h -0.501664 l 1.003328,-2.25191 m 7.859574,0.37552 -0.167553,0.37493 0.167553,-0.37493 m 9.698665,-0.37552 -0.501664,0.56298 0.501664,-0.56298 m 32.60816,0 -0.50165,0.56298 0.50165,-0.56298 m -36.119806,0.56298 -0.501663,0.56296 0.501663,-0.56296 m 31.103176,0.56296 c -2.28058,3.18816 -4.05447,1.53863 -7.023296,0.56299 l 7.023296,-0.56299 m -41.136449,0 -1.003327,1.68896 1.003327,-1.68896 m 5.852908,0.37552 -0.167552,0.37493 0.167552,-0.37493 m -7.524955,0.56299 -0.167563,0.37493 0.167563,-0.37493 m 5.183693,-0.37552 -0.501664,0.56298 0.501664,-0.56298 m 30.601507,0.56298 v 0.56299 l -4.013322,-0.56299 v 0.56299 l 6.019962,1.68894 v 1.68893 c -5.297053,-1.67093 -7.028793,-1.06233 -11.538251,2.25191 0.272897,-1.83644 1.112179,-3.26752 -0.501675,-2.8149 2.484241,-3.74211 6.133349,-4.41938 10.033286,-3.37787 m -5.518313,1.12597 v 0.56296 l 6.521643,1.12598 -6.521643,-1.68894 m 23.578209,0.56296 c 3.30345,3.04628 8.53329,4.21952 7.02328,10.1336 l -8.52827,-9.00762 1.50499,-1.12598 m -18.059896,2.81491 c -2.18826,2.86442 -5.814295,4.21164 -9.029959,5.06679 0.564875,-5.68719 4.84207,-6.55363 9.029959,-5.06679 m 17.558236,-1.12597 0.50166,0.56299 -0.50166,-0.56299 m -56.186373,0.56299 0.501664,0.56298 -0.501664,-0.56298 m 39.631467,0 -0.50168,0.56298 0.50168,-0.56298 m -56.186375,1.12594 4.013313,3.94086 -4.013313,-3.94086 m 43.143104,1.12597 v 2.81489 H 84.87412 l 0.501663,-2.81489 m 9.531611,1.68893 -2.508308,1.68893 v 0.56297 l 3.009978,-1.68893 -0.50167,-0.56297 m 2.50833,0 -5.016638,3.37787 v 0.56296 l 5.518288,-3.37786 -0.50165,-0.56297 m 0.50165,1.12596 0.50168,0.56297 -0.50168,-0.56297 m 24.079866,0 v 1.68894 h 0.50166 l -0.50166,-1.68894 m -35.116466,0.56297 -1.003327,1.12597 v -1.12597 h 1.003327 m 17.558246,1.12597 c 0.69881,1.569 1.91585,2.40614 1.50499,0.56297 3.7454,2.58237 7.04989,4.46158 11.53826,4.50383 v 0.56296 h -4.51498 l 0.50168,1.68893 c -3.48658,-0.0811 -9.65304,-2.22094 -9.02995,-7.31869 m -25.584875,2.2519 v 0.56298 h -4.514973 l 4.514973,-0.56298 m 12.541602,2.25191 -2.006643,1.12595 2.006643,-1.12595 m -2.006643,1.68893 v 0.56299 l -5.518312,0.56296 z"
       id="path38" />
  </g>
</svg>
